<svg xmlns="http://www.w3.org/2000/svg" height="24" viewBox="0 0 260.781 39.994"><defs><style>.a{fill:#002d9c;}</style></defs><path class="a" d="M1106.975,7505.639h-33.141V7472.5h33.141Zm-31.062-2.081H1104.9v-28.981h-28.983Z" transform="translate(-1073.002 -7471.667)"></path><path class="a" d="M1106.136,7504.8h-34.8V7470h34.8ZM1073,7503.137h31.479v-31.48H1073Zm31.062-.417h-30.645v-30.645h30.645Zm-28.982-1.662h27.32v-27.322h-27.32Z" transform="translate(-1071.333 -7469.997)"></path><g transform="translate(15.531)"><g transform="translate(0)"><path class="a" d="M1138.161,7490.105h-17.61V7472.5h17.61Zm-15.53-2.077h13.45v-13.452h-13.45Z" transform="translate(-1119.72 -7471.667)"></path><path class="a" d="M1137.324,7489.267h-19.273V7470h19.273Zm-17.61-1.661h15.948v-15.949h-15.948Zm15.531-.417h-15.113v-15.113h15.113Zm-13.45-1.662h11.788v-11.791h-11.788Z" transform="translate(-1118.051 -7469.997)"></path></g></g><g transform="translate(48.259 2.236)"><path class="a" d="M1216.5,7477.687h5.423v28.759H1216.5Z" transform="translate(-1216.497 -7477.365)"></path><path class="a" d="M1253.215,7506.27h.322a6.689,6.689,0,0,1,2.49-2.347,7.275,7.275,0,0,1,3.576-.864,8.242,8.242,0,0,1,3.253.6,5.95,5.95,0,0,1,2.309,1.709,7.539,7.539,0,0,1,1.367,2.65,12.044,12.044,0,0,1,.462,3.436v11.927h-5.263V7512.1a4.538,4.538,0,0,0-.943-3.155,3.556,3.556,0,0,0-2.751-1.022,3.853,3.853,0,0,0-1.908.46,4.474,4.474,0,0,0-1.407,1.246,5.656,5.656,0,0,0-.884,1.848,8.313,8.313,0,0,0-.3,2.271v9.638h-5.261V7503.7h4.939Z" transform="translate(-1237.711 -7494.303)"></path><path class="a" d="M1323.557,7476.718a10.244,10.244,0,0,1,2.089.2,9.375,9.375,0,0,1,1.726.521l-1.485,4.7a4.323,4.323,0,0,0-.864-.321,4.568,4.568,0,0,0-1.144-.122,2.392,2.392,0,0,0-1.849.742,2.956,2.956,0,0,0-.682,2.07v1.608h4.9v4.5h-4.9V7505.8h-5.262v-15.183h-3.534v-4.5h3.534v-1.93a8.709,8.709,0,0,1,.543-3.191,6.277,6.277,0,0,1,1.546-2.331,6.865,6.865,0,0,1,2.37-1.445A8.637,8.637,0,0,1,1323.557,7476.718Z" transform="translate(-1280.619 -7476.718)"></path><path class="a" d="M1367.813,7503.059a10.962,10.962,0,0,1,4.2.782,9.739,9.739,0,0,1,5.464,5.483,11.767,11.767,0,0,1,0,8.436,9.9,9.9,0,0,1-2.169,3.314,10.019,10.019,0,0,1-3.295,2.168,11.628,11.628,0,0,1-8.4,0,10.01,10.01,0,0,1-3.293-2.168,9.886,9.886,0,0,1-2.169-3.314,11.738,11.738,0,0,1,0-8.436,9.744,9.744,0,0,1,5.462-5.483A10.97,10.97,0,0,1,1367.813,7503.059Zm0,16.107a5.138,5.138,0,0,0,1.947-.382,5,5,0,0,0,1.668-1.1,5.241,5.241,0,0,0,1.143-1.766,6.865,6.865,0,0,0,0-4.74,5.211,5.211,0,0,0-1.143-1.768,4.958,4.958,0,0,0-1.668-1.105,5.223,5.223,0,0,0-3.916,0,4.985,4.985,0,0,0-1.647,1.105,5.22,5.22,0,0,0-1.145,1.768,6.893,6.893,0,0,0,0,4.74,5.25,5.25,0,0,0,1.145,1.766,5.028,5.028,0,0,0,1.647,1.1A5.1,5.1,0,0,0,1367.813,7519.167Z" transform="translate(-1310.536 -7494.303)"></path><path class="a" d="M1429.263,7503.7h4.941v2.371h.32a5.96,5.96,0,0,1,2.25-2.13,7.425,7.425,0,0,1,3.775-.884,8.528,8.528,0,0,1,3.594.782,9.674,9.674,0,0,1,3.014,2.17,10.363,10.363,0,0,1,2.068,3.313,12.055,12.055,0,0,1,0,8.436,10.325,10.325,0,0,1-2.068,3.314,9.7,9.7,0,0,1-3.014,2.168,8.515,8.515,0,0,1-3.594.784,7.445,7.445,0,0,1-3.775-.884,5.994,5.994,0,0,1-2.25-2.128h-.32l.32,2.81v8.235h-5.262Zm10.2,15.465a5.017,5.017,0,0,0,1.989-.4,5.219,5.219,0,0,0,1.666-1.123,5.487,5.487,0,0,0,1.165-1.769,6.354,6.354,0,0,0,0-4.66,5.505,5.505,0,0,0-1.165-1.766,5.206,5.206,0,0,0-1.666-1.124,5,5,0,0,0-1.989-.4,5.283,5.283,0,0,0-1.988.381,4.963,4.963,0,0,0-1.668,1.105,5.464,5.464,0,0,0-1.164,1.768,6.58,6.58,0,0,0,0,4.74,5.5,5.5,0,0,0,1.164,1.766,5,5,0,0,0,1.668,1.1A5.246,5.246,0,0,0,1439.466,7519.167Z" transform="translate(-1358.53 -7494.303)"></path><path class="a" d="M1518.132,7518.645a11.033,11.033,0,0,1-3.676,3.895,10.207,10.207,0,0,1-5.643,1.487,10.834,10.834,0,0,1-4.158-.784,9.913,9.913,0,0,1-5.5-5.5,10.948,10.948,0,0,1-.784-4.2,10.748,10.748,0,0,1,.764-4.037,10.182,10.182,0,0,1,5.362-5.6,9.881,9.881,0,0,1,4.117-.844,10.731,10.731,0,0,1,4.217.782,8.642,8.642,0,0,1,3.092,2.17,9.332,9.332,0,0,1,1.888,3.274,12.658,12.658,0,0,1,.643,4.1v.482a2.69,2.69,0,0,0-.04.44,2.272,2.272,0,0,0-.042.442h-14.819a5.478,5.478,0,0,0,.662,2.068,4.967,4.967,0,0,0,1.245,1.447,4.767,4.767,0,0,0,1.627.843,6.277,6.277,0,0,0,1.807.264,5.122,5.122,0,0,0,2.993-.826,6.008,6.008,0,0,0,1.867-2.066Zm-4.78-7.631a3.4,3.4,0,0,0-.342-1.165,4.09,4.09,0,0,0-.885-1.207,4.628,4.628,0,0,0-1.445-.924,5.354,5.354,0,0,0-2.068-.361,4.8,4.8,0,0,0-2.972.965,5.07,5.07,0,0,0-1.808,2.692Z" transform="translate(-1404.662 -7494.303)"></path><path class="a" d="M1568.933,7503.7h4.939v2.73h.323a5.07,5.07,0,0,1,.964-1.323,7,7,0,0,1,1.345-1.052,7.711,7.711,0,0,1,1.607-.724,5.6,5.6,0,0,1,1.708-.274,6.207,6.207,0,0,1,1.787.225,4.475,4.475,0,0,1,1.266.578l-1.407,4.7a5.006,5.006,0,0,0-1.062-.381,6.312,6.312,0,0,0-1.427-.14,4.509,4.509,0,0,0-1.968.424,4.3,4.3,0,0,0-1.507,1.191,5.608,5.608,0,0,0-.963,1.795,7.063,7.063,0,0,0-.342,2.242v9.689h-5.262Z" transform="translate(-1451.767 -7494.303)"></path><path class="a" d="M1630.9,7518.364a10.986,10.986,0,0,1-3.6,4.076,9.95,9.95,0,0,1-5.762,1.587,10.951,10.951,0,0,1-4.2-.784,9.813,9.813,0,0,1-3.293-2.188,10.2,10.2,0,0,1-2.169-3.312,10.956,10.956,0,0,1-.783-4.2,11.112,11.112,0,0,1,.783-4.218,9.743,9.743,0,0,1,5.462-5.483,10.968,10.968,0,0,1,4.2-.782,10.06,10.06,0,0,1,5.743,1.566,9.284,9.284,0,0,1,3.414,4.058l-4.82,2.008a5.17,5.17,0,0,0-1.748-2.067,4.739,4.739,0,0,0-2.671-.7,4.856,4.856,0,0,0-1.969.4,5.043,5.043,0,0,0-1.626,1.124,5.115,5.115,0,0,0-1.1,1.766,6.968,6.968,0,0,0,0,4.66,5.01,5.01,0,0,0,2.731,2.892,4.874,4.874,0,0,0,1.969.4,5.01,5.01,0,0,0,2.792-.744,5.177,5.177,0,0,0,1.827-2.147Z" transform="translate(-1479.914 -7494.303)"></path><path class="a" d="M1696.105,7518.645a11.034,11.034,0,0,1-3.676,3.895,10.207,10.207,0,0,1-5.643,1.487,10.833,10.833,0,0,1-4.157-.784,9.914,9.914,0,0,1-5.5-5.5,10.966,10.966,0,0,1-.783-4.2,10.764,10.764,0,0,1,.763-4.037,10.184,10.184,0,0,1,5.363-5.6,9.885,9.885,0,0,1,4.118-.844,10.732,10.732,0,0,1,4.216.782,8.631,8.631,0,0,1,3.092,2.17,9.328,9.328,0,0,1,1.889,3.274,12.678,12.678,0,0,1,.642,4.1v.482a2.725,2.725,0,0,0-.039.44,2.273,2.273,0,0,0-.041.442h-14.82a5.474,5.474,0,0,0,.662,2.068,4.96,4.96,0,0,0,1.245,1.447,4.772,4.772,0,0,0,1.627.843,6.278,6.278,0,0,0,1.807.264,5.122,5.122,0,0,0,2.993-.826,6,6,0,0,0,1.867-2.066Zm-4.78-7.631a3.406,3.406,0,0,0-.342-1.165,4.08,4.08,0,0,0-.884-1.207,4.628,4.628,0,0,0-1.446-.924,5.35,5.35,0,0,0-2.067-.361,4.8,4.8,0,0,0-2.973.965,5.066,5.066,0,0,0-1.807,2.692Z" transform="translate(-1523.469 -7494.303)"></path><path class="a" d="M1746.416,7503.7h4.942v2.371h.321a5.962,5.962,0,0,1,2.249-2.13,7.428,7.428,0,0,1,3.776-.884,8.528,8.528,0,0,1,3.594.782,9.666,9.666,0,0,1,3.014,2.17,10.356,10.356,0,0,1,2.069,3.313,12.051,12.051,0,0,1,0,8.436,10.318,10.318,0,0,1-2.069,3.314,9.691,9.691,0,0,1-3.014,2.168,8.515,8.515,0,0,1-3.594.784,7.448,7.448,0,0,1-3.776-.884,6,6,0,0,1-2.249-2.128h-.321l.321,2.81v8.235h-5.262Zm10.2,15.465a5.02,5.02,0,0,0,1.989-.4,5.231,5.231,0,0,0,1.666-1.123,5.492,5.492,0,0,0,1.165-1.769,6.371,6.371,0,0,0,0-4.66,5.51,5.51,0,0,0-1.165-1.766,5.218,5.218,0,0,0-1.666-1.124,5,5,0,0,0-1.989-.4,5.28,5.28,0,0,0-1.989.381,4.951,4.951,0,0,0-1.668,1.105,5.456,5.456,0,0,0-1.164,1.768,6.577,6.577,0,0,0,0,4.74,5.489,5.489,0,0,0,1.164,1.766,4.992,4.992,0,0,0,1.668,1.1A5.243,5.243,0,0,0,1756.62,7519.167Z" transform="translate(-1570.247 -7494.303)"></path><path class="a" d="M1816.085,7497.392h-3.454v-4.5h3.454v-6.023h5.262v6.023h4.819v4.5h-4.819v7.865a5.766,5.766,0,0,0,.139,1.3,2.149,2.149,0,0,0,.543,1.015,2,2,0,0,0,1.607.661,2.937,2.937,0,0,0,1.849-.523l1.486,4.62a8.738,8.738,0,0,1-1.989.663,11.725,11.725,0,0,1-2.35.22,7.2,7.2,0,0,1-2.669-.47,5.678,5.678,0,0,1-1.989-1.292,7,7,0,0,1-1.888-5.248Z" transform="translate(-1614.449 -7483.495)"></path></g></svg>